<?xml version="1.0" standalone="no"?>
<!DOCTYPE svg PUBLIC "-//W3C//DTD SVG 1.1//EN" "http://www.w3.org/Graphics/SVG/1.1/DTD/svg11.dtd" >
<svg xmlns="http://www.w3.org/2000/svg">
<metadata>Generated by IcoMoon</metadata>
<defs>
<font id="icomoon" horiz-adv-x="1024">
<font-face units-per-em="1024" ascent="960" descent="-64" />
<missing-glyph horiz-adv-x="1024" />
<glyph unicode="&#x20;" horiz-adv-x="512" d="" />
<glyph unicode="&#xe900;" glyph-name="mail" horiz-adv-x="1470" d="M0 960v-1024h1470.171v1024h-1470.171zM1280 850.286l-541.257-416.914-548.571 416.914h1089.829zM109.714 45.714v724.114l636.343-468.114 614.4 468.114v-724.114h-1250.743z" />
<glyph unicode="&#xe901;" glyph-name="tw" horiz-adv-x="1260" d="M1260.308 839.221c-47.262-21.005-94.523-36.759-147.036-42.010 52.513 31.508 94.523 84.021 115.528 141.785-52.513-31.508-105.026-52.513-162.79-63.015-52.513 52.513-120.779 84.021-194.297 84.021-168.041 0-288.821-157.538-252.062-315.077-215.303 10.503-404.349 110.277-530.379 267.815-68.267-115.528-36.759-267.815 78.769-346.585-42.010 5.251-84.021 15.754-115.528 31.508-5.251-120.779 84.021-231.056 204.8-257.313-36.759-10.503-78.769-10.503-115.528-5.251 31.508-105.026 126.031-178.544 241.559-178.544-110.277-84.021-246.81-120.779-383.344-105.026 115.528-73.518 252.062-115.528 393.846-115.528 477.867 0 750.933 404.349 735.179 766.687 52.513 36.759 94.523 84.021 131.282 136.533z" />
<glyph unicode="&#xe902;" glyph-name="fb" d="M968.533 960h-913.067c-29.867 0-55.467-25.6-55.467-55.467v-913.067c0-29.867 25.6-55.467 55.467-55.467h490.667v396.8h-132.267v153.6h132.267v115.2c0 132.267 81.067 204.8 200.533 204.8 55.467 0 106.667-4.267 119.467-4.267v-140.8h-81.067c-64 0-76.8-29.867-76.8-76.8v-98.133h153.6l-21.333-153.6h-132.267v-396.8h260.267c29.867 0 55.467 25.6 55.467 55.467v913.067c0 29.867-25.6 55.467-55.467 55.467z" />
<glyph unicode="&#xe903;" glyph-name="vm" horiz-adv-x="1182" d="M1127.385 541.538c-118.154-256-408.615-605.538-595.692-605.538-182.154 0-206.769 384-305.231 640-49.231 128-78.769 98.462-172.308 34.462l-54.154 68.923c132.923 118.154 265.846 251.077 349.538 260.923 93.538 9.846 147.692-54.154 167.385-187.077 29.538-177.231 68.923-452.923 132.923-452.923 54.154 0 182.154 216.615 192 295.385 9.846 113.231-83.692 118.154-167.385 83.692 132.923 428.308 679.385 349.538 452.923-137.846z" />
<glyph unicode="&#xe904;" glyph-name="yt" horiz-adv-x="1365" d="M1115.022 948.622c-204.8 17.067-659.911 17.067-864.711 0-221.867-17.067-250.311-147.911-250.311-500.622s28.444-483.556 250.311-500.622c204.8-11.378 659.911-11.378 864.711 0 221.867 11.378 250.311 147.911 250.311 500.622s-28.444 483.556-250.311 500.622zM512 220.444v455.111l455.111-227.556-455.111-227.556z" />
<glyph unicode="&#xe905;" glyph-name="plus" d="M0 494.545h1024v-93.091h-1024v93.091zM474.764 960h93.091v-1024h-93.091v1024z" />
<glyph unicode="&#xe906;" glyph-name="login" d="M870.4 234.667c-110.933 59.733-264.533 85.333-358.4 85.333-170.667 0-512-93.867-512-264.533v-119.467h1024v119.467c0 76.8-59.733 136.533-153.6 179.2zM512 448c145.067 0 256 110.933 256 256 0 34.133-8.533 76.8-25.6 102.4-42.667 93.867-128 153.6-230.4 153.6s-187.733-59.733-230.4-153.6c-17.067-25.6-25.6-68.267-25.6-102.4 0-145.067 110.933-256 256-256z" />
<glyph unicode="&#xe907;" glyph-name="pin" horiz-adv-x="683" d="M341.333 960c-179.2 0-341.333-145.067-341.333-324.267 0-264.533 273.067-294.4 341.333-699.733 68.267 405.333 341.333 435.2 341.333 699.733 0 179.2-162.133 324.267-341.333 324.267zM341.333 490.667c-72.533 0-128 55.467-128 128s55.467 128 128 128 128-55.467 128-128-55.467-128-128-128z" />
<glyph unicode="&#xe908;" glyph-name="fb2" horiz-adv-x="526" d="M0 618.667h137.634v101.849c0 46.796-2.753 118.366 30.28 162.409 35.785 46.796 82.581 79.828 165.161 79.828 134.882 0 192.688-19.269 192.688-19.269l-27.527-159.656c0 0-52.301 13.763-93.591 13.763s-85.333-13.763-85.333-57.806v-118.366h184.43l-11.011-184.43h-173.419v-500.989h-181.677v500.989h-137.634v181.677z" />
<glyph unicode="&#xe909;" glyph-name="fb3" d="M968.533 960h-913.067c-29.867 0-55.467-25.6-55.467-55.467v-913.067c0-29.867 25.6-55.467 55.467-55.467h490.667v396.8h-132.267v153.6h132.267v115.2c0 132.267 81.067 204.8 200.533 204.8 55.467 0 106.667-4.267 119.467-4.267v-140.8h-81.067c-64 0-76.8-29.867-76.8-76.8v-98.133h153.6l-21.333-153.6h-132.267v-396.8h260.267c29.867 0 55.467 25.6 55.467 55.467v913.067c0 29.867-25.6 55.467-55.467 55.467z" />
<glyph unicode="&#xe90a;" glyph-name="houkoku" d="M725.333 533.333h-426.667v-85.333h426.667v85.333zM810.667 832h-597.333c-46.933 0-85.333-38.4-85.333-85.333v-597.333c0-46.933 38.4-85.333 85.333-85.333h597.333c46.933 0 85.333 38.4 85.333 85.333v597.333c0 46.933-38.4 85.333-85.333 85.333zM810.667 149.333h-597.333v469.333h597.333v-469.333zM597.333 362.667h-298.667v-85.333h298.667v85.333z" />
<glyph unicode="&#xe90b;" glyph-name="ins" d="M1024 661.333c8.533 153.6-102.4 290.133-256 298.667-17.067 0-34.133 0-42.667 0-59.733 0-76.8 0-213.333 0s-153.6 0-213.333 0c-153.6 8.533-290.133-110.933-298.667-264.533 0-17.067 0-25.6 0-42.667 0-51.2 0-68.267 0-204.8s0-153.6 0-213.333c-8.533-153.6 110.933-290.133 264.533-298.667 17.067 0 25.6 0 42.667 0 51.2 0 68.267 0 213.333 0s153.6 0 213.333 0c153.6-8.533 290.133 102.4 298.667 264.533 0 17.067 0 25.6 0 42.667 0 51.2 0 68.267 0 213.333s-8.533 145.067-8.533 204.8zM930.133 243.2c8.533-102.4-68.267-196.267-170.667-213.333-17.067 0-25.6 0-42.667 0-51.2 0-68.267 0-204.8 0s-153.6 0-204.8 0c-102.4-8.533-196.267 68.267-213.333 170.667 0 17.067 0 25.6 0 42.667 0 51.2 0 68.267 0 204.8s0 153.6 0 204.8c-8.533 102.4 68.267 196.267 170.667 213.333 8.533 0 25.6 0 34.133 0 51.2 0 68.267 0 204.8 0s153.6 0 204.8 0c102.4 8.533 196.267-68.267 213.333-170.667 0-8.533 0-25.6 0-34.133 0-51.2 0-68.267 0-204.8s8.533-162.133 8.533-213.333zM785.067 780.8c-34.133 0-59.733-25.6-59.733-59.733s25.6-59.733 59.733-59.733c34.133 0 59.733 25.6 59.733 59.733s-25.6 59.733-59.733 59.733v0zM512 712.533c-145.067 0-264.533-119.467-264.533-264.533s119.467-264.533 264.533-264.533 264.533 119.467 264.533 264.533v0c0 145.067-119.467 264.533-264.533 264.533zM512 277.333c-93.867 0-170.667 76.8-170.667 170.667s76.8 170.667 170.667 170.667 170.667-76.8 170.667-170.667-76.8-170.667-170.667-170.667z" />
<glyph unicode="&#xe90c;" glyph-name="kouza" d="M853.333 789.333h-682.667c-46.933 0-85.333-38.4-85.333-85.333v-512c0-46.933 38.4-85.333 85.333-85.333h682.667c46.933 0 85.333 38.4 85.333 85.333v512c0 46.933-38.4 85.333-85.333 85.333zM853.333 192h-682.667v256h682.667v-256zM853.333 618.667h-682.667v85.333h682.667v-85.333z" />
<glyph unicode="&#xe90d;" glyph-name="okane" d="M384 362.667h-298.667v-85.333h298.667v-128l170.667 170.667-170.667 170.667v-128zM640 405.333v128h298.667v85.333h-298.667v128l-170.667-170.667 170.667-170.667z" />
<glyph unicode="&#xe90e;" glyph-name="other" horiz-adv-x="4490" d="M504.123 960c-267.815 0-504.123-236.308-504.123-504.123s236.308-504.123 504.123-504.123 519.877 220.554 519.877 504.123-236.308 504.123-519.877 504.123zM2252.8 960c-283.569 0-519.877-236.308-519.877-504.123s236.308-504.123 504.123-504.123 504.123 236.308 504.123 504.123-220.554 504.123-488.369 504.123zM3985.723 960c-283.569 0-519.877-236.308-519.877-504.123s236.308-504.123 504.123-504.123 504.123 236.308 504.123 504.123-220.554 504.123-488.369 504.123z" />
<glyph unicode="&#xe90f;" glyph-name="torihiki" d="M810.667 832h-179.2c-17.067 51.2-64 85.333-119.467 85.333s-102.4-34.133-119.467-85.333h-179.2c-46.933 0-85.333-38.4-85.333-85.333v-597.333c0-46.933 38.4-85.333 85.333-85.333h597.333c46.933 0 85.333 38.4 85.333 85.333v597.333c0 46.933-38.4 85.333-85.333 85.333zM512 832c25.6 0 42.667-21.333 42.667-42.667s-17.067-42.667-42.667-42.667-42.667 17.067-42.667 42.667 17.067 42.667 42.667 42.667zM426.667 234.667l-170.667 170.667 59.733 59.733 110.933-110.933 281.6 281.6 59.733-59.733-341.333-341.333z" />
<glyph unicode="&#xe910;" glyph-name="tsumitate" d="M128 746.667v-597.333c0-46.933 38.4-85.333 85.333-85.333h597.333c46.933 0 85.333 38.4 85.333 85.333v597.333c0 46.933-38.4 85.333-85.333 85.333h-597.333c-46.933 0-85.333-38.4-85.333-85.333zM640 533.333h85.333v-298.667h-85.333v298.667zM469.333 661.333h85.333v-426.667h-85.333v426.667zM298.667 405.333h85.333v-170.667h-85.333v170.667z" />
<glyph unicode="&#xe911;" glyph-name="zeikin" d="M853.333 704h-128v85.333c0 46.933-38.4 85.333-85.333 85.333h-256c-46.933 0-85.333-38.4-85.333-85.333v-85.333h-128c-46.933 0-85.333-38.4-85.333-85.333v-469.333c0-46.933 38.4-85.333 85.333-85.333h682.667c46.933 0 85.333 38.4 85.333 85.333v469.333c0 46.933-38.4 85.333-85.333 85.333zM384 789.333h256v-85.333h-256v85.333zM853.333 149.333h-682.667v85.333h682.667v-85.333zM853.333 362.667h-682.667v256h128v-85.333h85.333v85.333h256v-85.333h85.333v85.333h128v-256z" />
<glyph unicode="&#xe912;" glyph-name="shintaku" d="M853.333 874.667h-682.667c-46.933 0-85.333-38.4-85.333-85.333v-768l170.667 170.667h597.333c46.933 0 85.333 38.4 85.333 85.333v512c0 46.933-38.4 85.333-85.333 85.333zM554.667 362.667h-85.333v85.333h85.333v-85.333zM554.667 533.333h-85.333v170.667h85.333v-170.667z" />
<glyph unicode="&#xe913;" glyph-name="arrow" horiz-adv-x="652" d="M0 820.768l372.274-372.274-372.274-373.261 139.232-139.232 512.494 512.494-140.22 139.232-372.274 372.274-139.232-139.232z" />
<glyph unicode="&#xe914;" glyph-name="plus-s" d="M425.485 960h173.030v-1024h-173.030v1024zM0 534.515h1024v-173.030h-1024v173.030z" />
<glyph unicode="&#xe915;" glyph-name="c1" d="M791.273 564.364h-744.727c-18.618 0-37.236 13.964-37.236 37.236s18.618 32.582 37.236 32.582h744.727c18.618 0 37.236-13.964 37.236-37.236s-18.618-32.582-37.236-32.582zM875.055 52.364h-744.727c-69.818 0-130.327 55.855-130.327 130.327v558.545c0 69.818 55.855 125.673 130.327 125.673h744.727c69.818 0 130.327-55.855 130.327-130.327v-558.545c-4.655-69.818-60.509-125.673-130.327-125.673zM130.327 797.091c-32.582 0-55.855-27.927-55.855-55.855v-558.545c0-32.582 27.927-55.855 55.855-55.855h744.727c32.582 0 55.855 27.927 55.855 55.855v558.545c0 32.582-27.927 55.855-55.855 55.855h-744.727z" />
<glyph unicode="&#xe916;" glyph-name="c6" horiz-adv-x="1307" d="M1262.724 721.276h-521.423l157.055 157.055c18.847 18.847 18.847 50.258 0 69.104s-50.258 18.847-69.104 0l-232.442-238.724c0 0 0 0 0 0l-37.693-31.411 270.135-270.135c6.282-6.282 18.847-12.564 31.411-12.564s25.129 6.282 31.411 12.564c18.847 18.847 18.847 50.258 0 69.104l-157.055 157.055h521.423c25.129 0 50.258 18.847 50.258 50.258s-18.847 37.693-43.975 37.693zM408.344 495.117c-18.847-18.847-18.847-50.258 0-69.104l157.055-157.055h-515.141c-31.411 0-50.258-18.847-50.258-43.975s18.847-50.258 50.258-50.258h515.141l-157.055-157.055c-18.847-18.847-18.847-50.258 0-69.104 6.282-6.282 18.847-12.564 31.411-12.564s25.129 6.282 31.411 12.564l238.724 238.724c0 0 0 0 0 0l31.411 31.411-263.853 276.417c-18.847 18.847-50.258 18.847-69.104 0z" />
<glyph unicode="&#xe917;" glyph-name="c3" d="M875.055-8.145h-744.727c-74.473 0-130.327 60.509-130.327 130.327v465.455c0 69.818 55.855 130.327 130.327 130.327h744.727c69.818 0 130.327-55.855 130.327-130.327v-465.455c-4.655-69.818-60.509-130.327-130.327-130.327zM130.327 643.491c-32.582 0-60.509-23.273-60.509-55.855v-465.455c0-32.582 27.927-55.855 55.855-55.855h744.727c32.582 0 55.855 27.927 55.855 55.855v465.455c0 32.582-27.927 55.855-55.855 55.855h-740.073zM726.109 517.818c-18.618 0-37.236 13.964-37.236 37.236v232.727c0 32.582-27.927 55.855-55.855 55.855h-265.309c-32.582 0-55.855-27.927-55.855-55.855v-232.727c0-18.618-13.964-37.236-37.236-37.236s-32.582 13.964-32.582 32.582v232.727c0 74.473 55.855 130.327 125.673 130.327h260.655c69.818 0 130.327-55.855 130.327-130.327v-232.727c0-18.618-13.964-32.582-32.582-32.582zM823.855 229.236h-781.964c-18.618 0-37.236 13.964-37.236 37.236s13.964 37.236 37.236 37.236h781.964c18.618 0 37.236-13.964 37.236-37.236s-18.618-37.236-37.236-37.236z" />
<glyph unicode="&#xe918;" glyph-name="c4" horiz-adv-x="892" d="M325.604 766.525c-18.876 0-37.751 14.157-37.751 37.751 0 84.94 70.783 155.724 160.442 155.724 84.94 0 155.724-70.783 155.724-155.724h-70.783c0 47.189-37.751 84.94-84.94 84.94s-84.94-37.751-84.94-84.94c-4.719-18.876-18.876-37.751-37.751-37.751zM136.848-68.719c-37.751 0-75.502 14.157-99.097 42.47s-37.751 66.065-37.751 103.816v608.737c0 37.751 14.157 70.783 37.751 99.097 28.313 28.313 61.346 42.47 99.097 42.47h165.161c18.876 0 37.751-14.157 37.751-37.751s-18.876-33.032-37.751-33.032h-165.161c-18.876 0-33.032-9.438-47.189-18.876-14.157-14.157-18.876-33.032-18.876-51.908v-613.456c0-18.876 4.719-37.751 18.876-51.908s28.313-18.876 47.189-23.594h618.175c37.751 0 66.065 33.032 66.065 70.783v613.456c0 18.876-4.719 37.751-18.876 47.189s-28.313 18.876-47.189 18.876h-174.599c-18.876 0-37.751 14.157-37.751 37.751s14.157 37.751 37.751 37.751h174.599c37.751 0 75.502-14.157 99.097-42.47s37.751-61.346 37.751-99.097v-608.737c0-75.502-61.346-141.567-136.848-141.567h-618.175zM490.765 799.558c0-26.062-21.127-47.189-47.189-47.189s-47.189 21.127-47.189 47.189c0 26.062 21.127 47.189 47.189 47.189s47.189-21.127 47.189-47.189zM396.387 219.134l-155.724 155.724c-14.157 14.157-14.157 37.751 0 51.908s37.751 14.157 51.908 0l108.535-108.535 212.35 212.35c14.157 14.157 37.751 14.157 51.908 0s14.157-37.751 0-51.908l-268.977-259.539z" />
<glyph unicode="&#xe919;" glyph-name="c5" d="M160.838-69.361h-5.361c-42.89 0-80.419 16.084-112.586 48.251-26.806 32.168-42.89 75.058-42.89 117.948v702.325c0 91.141 75.058 160.838 160.838 160.838h707.686c85.78 0 160.838-75.058 160.838-160.838v-702.325c0-42.89-16.084-80.419-42.89-112.586s-69.696-48.251-112.586-48.251h-713.047zM160.838 879.581c-42.89 0-80.419-37.529-80.419-80.419v-702.325c0-21.445 5.361-42.89 21.445-58.974s32.168-21.445 53.613-26.806h713.047c21.445 0 42.89 10.723 53.613 21.445 16.084 16.084 21.445 37.529 21.445 58.974v707.686c0 42.89-32.168 80.419-80.419 80.419h-702.325c0 0 0 0 0 0zM321.675 198.702c-21.445 0-42.89 16.084-42.89 42.89v198.366c0 21.445 21.445 37.529 42.89 37.529s42.89-16.084 42.89-42.89v-203.728c-5.361-16.084-21.445-32.168-42.89-32.168zM707.686 198.702c-21.445 0-42.89 16.084-42.89 42.89v321.675c0 21.445 16.084 42.89 42.89 42.89s42.89-16.084 42.89-42.89v-321.675c-5.361-26.806-21.445-42.89-42.89-42.89zM520.042 198.702c-21.445 0-42.89 16.084-42.89 42.89v412.817c0 21.445 16.084 42.89 42.89 42.89s42.89-16.084 42.89-42.89v-418.178c-5.361-21.445-21.445-37.529-42.89-37.529z" />
<glyph unicode="&#xe91a;" glyph-name="c2" d="M862.011 288.904v0c-109.921 52.068-225.627 80.994-352.904 86.78-144.633 0-509.107-86.78-509.107-283.48v-150.418h1024v150.418c0 75.209-57.853 144.633-161.989 196.701zM937.22 28.565h-850.441v63.638c0 104.136 260.339 196.701 422.328 196.701 109.921-5.785 214.056-28.927 312.407-75.209 69.424-34.712 109.921-80.994 109.921-121.492v-63.638zM503.322 404.61h5.785c150.418 0 271.91 121.492 271.91 277.695 0 40.497-11.571 80.994-23.141 115.706-28.927 69.424-80.994 121.492-150.418 144.633-63.638 23.141-138.847 23.141-208.271-5.785-63.638-28.927-115.706-80.994-144.633-144.633-11.571-34.712-23.141-69.424-23.141-109.921 0-156.203 121.492-277.695 271.91-277.695zM335.548 757.514c17.356 46.282 52.068 80.994 98.35 98.35 23.141 11.571 52.068 17.356 75.209 17.356s46.282-5.785 69.424-11.571c46.282-17.356 80.994-52.068 104.136-98.35 11.571-23.141 17.356-52.068 17.356-80.994 0-104.136-86.78-185.13-185.13-185.13v-46.282l-11.571 40.497c-98.35 0-185.13 86.78-185.13 190.915 0 23.141 5.785 52.068 17.356 75.209z" />
<glyph unicode="&#xe91b;" glyph-name="c7" d="M24.381-54.248v887.467c0 68.267 58.514 126.781 126.781 126.781h711.924c68.267 0 126.781-58.514 126.781-126.781v-536.381c0-68.267-58.514-126.781-126.781-126.781h-609.524l-229.181-224.305zM151.162 886.857c-29.257 0-53.638-24.381-53.638-53.638v-711.924l126.781 126.781h638.781c29.257 0 53.638 24.381 53.638 53.638v531.505c0 29.257-24.381 53.638-53.638 53.638h-711.924zM716.8 574.781h-414.476c-19.505 0-39.010 14.629-39.010 39.010s14.629 39.010 39.010 39.010h414.476c19.505 0 39.010-14.629 39.010-39.010s-19.505-39.010-39.010-39.010z" />
<glyph unicode="&#xe91c;" glyph-name="c8" d="M156.295-64c-91.621 0-161.684 75.453-156.295 161.684v700.632c0 86.232 70.063 161.684 156.295 161.684h711.411c86.232 0 161.684-75.453 156.295-161.684v-700.632c0-43.116-16.168-80.842-43.116-113.179-32.337-32.337-70.063-48.505-113.179-48.505h-711.411zM867.705 879.158h-711.411c-43.116 0-75.453-37.726-75.453-80.842v-700.632c0-43.116 32.337-80.842 75.453-80.842h706.021c21.558 0 43.116 10.779 53.895 21.558 16.168 16.168 21.558 37.726 21.558 53.895v706.021c5.389 43.116-26.947 80.842-70.063 80.842zM474.274 162.358h-269.474c-21.558 0-43.116 16.168-43.116 43.116s16.168 43.116 43.116 43.116h269.474c21.558 0 43.116-16.168 43.116-43.116s-21.558-43.116-43.116-43.116zM986.274 685.137h-943.158c-26.947 0-43.116 21.558-43.116 43.116s16.168 43.116 43.116 43.116h943.158c21.558 0 43.116-16.168 43.116-43.116s-21.558-43.116-43.116-43.116z" />
<glyph unicode="&#xe91d;" glyph-name="c9" d="M113.778 561.778c-62.838 0-113.778-50.94-113.778-113.778s50.94-113.778 113.778-113.778c62.838 0 113.778 50.94 113.778 113.778v0c0 62.838-50.94 113.778-113.778 113.778v0zM498.916 561.778c-62.838 0-113.778-50.94-113.778-113.778s50.94-113.778 113.778-113.778c62.838 0 113.778 50.94 113.778 113.778v0c0 62.838-50.94 113.778-113.778 113.778v0zM884.053 561.778c-62.838 0-113.778-50.94-113.778-113.778s50.94-113.778 113.778-113.778c62.838 0 113.778 50.94 113.778 113.778v0c0 62.838-50.94 113.778-113.778 113.778v0z" />
<glyph unicode="&#xe91e;" glyph-name="c10" horiz-adv-x="1198" d="M892.257 325.24h-586.854c-77.848 0-143.719-65.871-143.719-143.719v-59.883c0-23.953 17.965-47.906 47.906-47.906s47.906 17.965 47.906 47.906v59.883c0 29.942 23.953 53.895 53.895 53.895h586.854c29.942 0 53.895-23.953 53.895-53.895v-59.883c0-23.953 17.965-47.906 41.918-47.906s47.906 17.965 47.906 47.906v59.883c-5.988 77.848-71.86 143.719-149.708 143.719zM640.749 654.596v137.731c-11.977-5.988-23.953-11.977-41.918-11.977s-29.942 5.988-47.906 11.977v-137.731c11.977 0 29.942 0 47.906 0s29.942 0 41.918 0zM640.749 654.596v-23.953c0-23.953-17.965-47.906-47.906-47.906s-41.918 17.965-41.918 47.906v23.953c-305.404-23.953-550.924-281.45-550.924-598.83 0-23.953 17.965-47.906 47.906-47.906s47.906 17.965 47.906 47.906c0 281.45 227.556 509.006 509.006 509.006s509.006-227.556 509.006-509.006c0-23.953 17.965-47.906 47.906-47.906s47.906 17.965 47.906 47.906c-11.977 317.38-257.497 574.877-568.889 598.83zM598.83 582.737c23.953 0 47.906 17.965 47.906 47.906v23.953c-11.977 0-29.942 0-47.906 0s-29.942 0-47.906 0v-23.953c0-29.942 23.953-47.906 47.906-47.906zM580.865 43.789h-323.368c-23.953 0-47.906-17.965-47.906-47.906 0-23.953 17.965-47.906 47.906-47.906h323.368c23.953 0 47.906 17.965 47.906 47.906 0 23.953-23.953 47.906-47.906 47.906zM880.281 1.871c0-36.38-29.492-65.871-65.871-65.871s-65.871 29.492-65.871 65.871c0 36.38 29.492 65.871 65.871 65.871s65.871-29.492 65.871-65.871zM598.83 888.14c23.953 0 47.906-17.965 47.906-47.906v-47.906c23.953 17.965 47.906 41.918 47.906 77.848-5.988 47.906-47.906 89.825-95.813 89.825s-89.825-41.918-89.825-89.825c0-35.93 17.965-59.883 41.918-77.848v47.906c0 29.942 23.953 47.906 47.906 47.906zM640.749 792.327v47.906c0 23.953-17.965 47.906-47.906 47.906s-41.918-17.965-41.918-47.906v-47.906c17.965-5.988 29.942-11.977 47.906-11.977s29.942 5.988 41.918 11.977z" />
<glyph unicode="&#xe91f;" glyph-name="pdf" horiz-adv-x="819" d="M409.6 401.92h-30.72v-143.36h40.96c25.6 0 40.96 10.24 51.2 35.84 5.12 20.48 5.12 46.080 0 66.56-5.12 30.72-25.6 40.96-61.44 40.96zM512 960h-409.6c-56.32 0-102.4-46.080-102.4-102.4v-819.2c0-56.32 46.080-102.4 102.4-102.4h614.4c56.32 0 102.4 46.080 102.4 102.4v614.4l-307.2 307.2zM276.48 345.6c-10.24-30.72-40.96-51.2-81.92-51.2h-51.2v-87.040h-66.56v250.88h112.64c40.96 0 71.68-20.48 81.92-51.2 10.24-20.48 10.24-40.96 5.12-61.44zM512 243.2c-20.48-25.6-51.2-35.84-87.040-35.84h-107.52v250.88h107.52c35.84 0 61.44-10.24 81.92-30.72 46.080-46.080 40.96-138.24 5.12-184.32zM757.76 401.92h-117.76v-46.080h102.4v-51.2h-102.4v-102.4h-61.44v256h179.2v-56.32zM174.080 407.040h-35.84v-61.44h35.84c15.36 0 30.72 0 40.96 15.36 5.12 10.24 5.12 25.6 0 35.84s-20.48 10.24-40.96 10.24z" />
<glyph unicode="&#xe920;" glyph-name="check" horiz-adv-x="1307" d="M1154.723 960l-718.979-718.979-283.234 283.234-152.511-152.511 435.745-435.745 871.489 871.489z" />
<glyph unicode="&#xe921;" glyph-name="arrow-line" horiz-adv-x="1080" d="M1080.285 547.24h-702.087l273.527 273.527-140.22 139.232-511.506-511.506 139.232-140.22 372.274-372.274 140.22 139.232-273.527 274.515h702.087v197.493z" />
<glyph unicode="&#xe922;" glyph-name="search" horiz-adv-x="1015" d="M746.667 341.333c38.4 64 64 136.533 64 217.6 0 221.867-179.2 405.333-405.333 405.333s-405.333-183.467-405.333-409.6c0-221.867 179.2-405.333 405.333-405.333 76.8 0 145.067 21.333 204.8 55.467l273.067-273.067 132.267 132.267-268.8 277.333zM405.333 302.933c-140.8 0-251.733 115.2-251.733 251.733 0 140.8 115.2 251.733 251.733 251.733 140.8 0 251.733-115.2 251.733-251.733s-115.2-251.733-251.733-251.733z" />
<glyph unicode="&#xe923;" glyph-name="blank" horiz-adv-x="1312" d="M160.793 960v-126.942h1024v-744.727h126.942v871.669zM0 706.116h1040.926v-778.579h-1040.926v778.579z" />
</font>
</defs>
</svg>
